<?xml version="1.0" encoding="UTF-8" standalone="no"?>
<!-- Created with Inkscape (http://www.inkscape.org/) -->

<svg
   xmlns:dc="http://purl.org/dc/elements/1.1/"
   xmlns:cc="http://creativecommons.org/ns#"
   xmlns:rdf="http://www.w3.org/1999/02/22-rdf-syntax-ns#"
   xmlns:svg="http://www.w3.org/2000/svg"
   xmlns="http://www.w3.org/2000/svg"
   xmlns:sodipodi="http://sodipodi.sourceforge.net/DTD/sodipodi-0.dtd"
   xmlns:inkscape="http://www.inkscape.org/namespaces/inkscape"
   width="156.59375"
   height="333.75"
   id="svg2"
   version="1.1"
   inkscape:version="0.48.2 r9819"
   sodipodi:docname="batt_5200mah-outlines.svg">
  <defs
     id="defs4">
    <clipPath
       clipPathUnits="userSpaceOnUse"
       id="clipPath3168">
      <rect
         style="fill:none;stroke:none"
         id="rect3170"
         width="951.42859"
         height="791.42859"
         x="288.57141"
         y="303.79077" />
    </clipPath>
    <clipPath
       clipPathUnits="userSpaceOnUse"
       id="clipPath4158">
      <rect
         style="fill:none;stroke:#000000;stroke-width:2;stroke-miterlimit:4;stroke-opacity:1;stroke-dasharray:none"
         id="rect4160"
         width="420.22345"
         height="1056.6195"
         x="389.91888"
         y="22.006594" />
    </clipPath>
    <clipPath
       clipPathUnits="userSpaceOnUse"
       id="clipPath4753">
      <rect
         style="fill:none;stroke:#000000;stroke-width:1;stroke-miterlimit:4;stroke-opacity:1;stroke-dasharray:none"
         id="rect4755"
         width="943.62469"
         height="1166.7098"
         x="-43.591358"
         y="272.84613" />
    </clipPath>
  </defs>
  <sodipodi:namedview
     id="base"
     pagecolor="#ffffff"
     bordercolor="#666666"
     borderopacity="1.0"
     inkscape:pageopacity="0.0"
     inkscape:pageshadow="2"
     inkscape:zoom="0.38998556"
     inkscape:cx="41.958107"
     inkscape:cy="-82.247346"
     inkscape:document-units="mm"
     inkscape:current-layer="layer1"
     showgrid="false"
     showguides="true"
     inkscape:guide-bbox="true"
     inkscape:snap-global="true"
     inkscape:window-width="1280"
     inkscape:window-height="752"
     inkscape:window-x="0"
     inkscape:window-y="0"
     inkscape:window-maximized="1"
     units="mm"
     fit-margin-top="0"
     fit-margin-left="0"
     fit-margin-right="0"
     fit-margin-bottom="0" />
  <metadata
     id="metadata7">
    <rdf:RDF>
      <cc:Work
         rdf:about="">
        <dc:format>image/svg+xml</dc:format>
        <dc:type
           rdf:resource="http://purl.org/dc/dcmitype/StillImage" />
        <dc:title />
      </cc:Work>
    </rdf:RDF>
  </metadata>
  <g
     inkscape:label="Layer 1"
     inkscape:groupmode="layer"
     id="layer1"
     transform="translate(0.34375,-718.9375)">
    <path
       style="fill:none;stroke:#000000;stroke-width:0.69402683;stroke-miterlimit:4;stroke-opacity:1"
       d="m 0.34701341,744.84551 c 10e-6,-25.20716 28.62711959,-25.20716 31.56329959,-25.20716 l 16.954,0 c 1.04327,0 32.28474,0 32.28474,25.5478 l 0,274.97945 c 0,22.4417 -6.67391,31.8496 -39.85994,31.8496 -33.6781396,0 -40.94208959,-10.1784 -40.94208959,-31.6793 z"
       id="side_outline"
       inkscape:connector-curvature="0"
       sodipodi:nodetypes="cccccccc" />
    <path
       sodipodi:nodetypes="cccccccc"
       inkscape:connector-curvature="0"
       id="end_outline"
       d="m 18.209333,896.94416 47.906958,0 c 7.044932,0 14.980284,6.25498 14.891375,24.04457 l 9.62e-4,84.59907 c 0,29.4414 -21.518029,46.2906 -40.889096,46.287 -18.857197,0 -39.63209635,-15.8528 -39.63209635,-47.1605 l 0.0851426,-86.73648 C 0.59715952,909.13564 9.6452135,896.94416 18.209362,896.94416 z"
       style="fill:none;stroke:#000000;stroke-width:0.97487128;stroke-miterlimit:4;stroke-opacity:1;stroke-dasharray:none" />
    <path
       sodipodi:nodetypes="ccccccccc"
       inkscape:connector-curvature="0"
       id="top"
       d="m 0.15932639,749.44119 c 0,-22.6121 17.73038961,-29.9905 29.65645961,-29.9905 l 89.992024,0 c 8.87605,0 35.93838,0 35.93838,27.1343 l 0,276.91261 c 0,25.2777 -16.88731,28.7053 -34.76965,28.7053 l -93.790384,0 c -17.6770197,0 -27.02682961,-17.8218 -27.02682961,-25.4206 z"
       style="fill:none;stroke:#000000;stroke-width:1;stroke-miterlimit:4;stroke-opacity:1;stroke-dasharray:none" />
  </g>
</svg>
